<svg width="1587" height="907" xmlns="http://www.w3.org/2000/svg" xmlns:xlink="http://www.w3.org/1999/xlink" overflow="hidden"><defs><clipPath id="clip0"><rect x="0" y="0" width="1587" height="907"/></clipPath></defs><g clip-path="url(#clip0)"><rect x="0" y="0" width="1587" height="907.191" fill="#FFFFFF"/><rect x="1190.5" y="111.523" width="274" height="285.06" stroke="#606060" stroke-width="1.33305" stroke-miterlimit="8" stroke-dasharray="5.33221 3.99916" fill="#F2F2F2"/><rect x="45.5" y="517.609" width="274" height="285.06" stroke="#606060" stroke-width="1.33305" stroke-miterlimit="8" stroke-dasharray="5.33221 3.99916" fill="#F2F2F2"/><path d="M791.75 411.086 791.75 475.6 800 475.6 783.5 492.103 767 475.6 775.25 475.6 775.25 411.086Z" fill="#0070C0" fill-rule="evenodd"/><text font-family="Times New Roman,Times New Roman_MSFontService,sans-serif" font-style="italic" font-weight="700" font-size="28" transform="matrix(1 0 0 1.00021 35.6592 84)">Redundancy reduction <tspan font-size="28" x="272.276" y="0">min</tspan><tspan font-size="28" x="325.098" y="0">I</tspan><tspan font-style="normal" font-size="28" x="336.096" y="0">(</tspan>G;G<tspan font-size="19" x="396.083" y="5.99874">S</tspan><tspan font-style="normal" font-size="28" x="406.581" y="0">)</tspan><tspan font-style="normal" font-size="31" x="44.0574" y="296.938">Input Graphs</tspan></text><path d="M102.5 176.537 115.257 197.802" stroke="#202020" stroke-width="0.333263" stroke-miterlimit="8" fill="#BBE0E3" fill-rule="evenodd"/><path d="M93.5 173.036C93.5 169.998 95.9625 167.535 99 167.535 102.038 167.535 104.5 169.998 104.5 173.036 104.5 176.075 102.038 178.538 99 178.538 95.9625 178.538 93.5 176.075 93.5 173.036Z" stroke="#202020" stroke-width="0.333263" stroke-miterlimit="8" fill="#BBE0E3" fill-rule="evenodd"/><path d="M0 0 3.6724 32.5672" stroke="#202020" stroke-width="0.333263" stroke-miterlimit="8" fill="#BBE0E3" fill-rule="evenodd" transform="matrix(-1 0 0 1.00021 121.172 167.535)"/><path d="M114.5 161.534C114.5 158.22 117.186 155.533 120.5 155.533 123.814 155.533 126.5 158.22 126.5 161.534 126.5 164.848 123.814 167.535 120.5 167.535 117.186 167.535 114.5 164.848 114.5 161.534Z" stroke="#202020" stroke-width="0.333263" stroke-miterlimit="8" fill="#BBE0E3" fill-rule="evenodd"/><path d="M89.5 193.541 114.433 200.017" stroke="#202020" stroke-width="0.333263" stroke-miterlimit="8" fill="#BBE0E3" fill-rule="evenodd"/><path d="M81.5 192.04C81.5 189.002 84.1863 186.539 87.5 186.539 90.8138 186.539 93.5 189.002 93.5 192.04 93.5 195.079 90.8138 197.542 87.5 197.542 84.1863 197.542 81.5 195.079 81.5 192.04Z" stroke="#202020" stroke-width="0.333263" stroke-miterlimit="8" fill="#BBE0E3" fill-rule="evenodd"/><path d="M112.5 193.541 135.211 228.048" stroke="#202020" stroke-width="0.333263" stroke-miterlimit="8" fill="#BBE0E3" fill-rule="evenodd"/><path d="M110.5 197.542C110.5 194.227 113.186 191.54 116.5 191.54 119.814 191.54 122.5 194.227 122.5 197.542 122.5 200.856 119.814 203.543 116.5 203.543 113.186 203.543 110.5 200.856 110.5 197.542Z" stroke="#202020" stroke-width="0.333263" stroke-miterlimit="8" fill="#BBE0E3" fill-rule="evenodd"/><path d="M147.5 161.534 156.971 187.632" stroke="#202020" stroke-width="0.333263" stroke-miterlimit="8" fill="#BBE0E3" fill-rule="evenodd"/><path d="M0 0 7.53794 22.3235" stroke="#202020" stroke-width="0.333263" stroke-miterlimit="8" fill="#BBE0E3" fill-rule="evenodd" transform="matrix(-1 0 0 1.00021 168.038 164.535)"/><path d="M0 0 30.2487 21.7437" stroke="#202020" stroke-width="0.333263" stroke-miterlimit="8" fill="#BBE0E3" fill-rule="evenodd" transform="matrix(-1 0 0 1.00021 185.749 174.537)"/><path d="M141.5 155.533C141.5 152.218 144.186 149.531 147.5 149.531 150.814 149.531 153.5 152.218 153.5 155.533 153.5 158.847 150.814 161.534 147.5 161.534 144.186 161.534 141.5 158.847 141.5 155.533Z" stroke="#202020" stroke-width="0.333263" stroke-miterlimit="8" fill="#BBE0E3" fill-rule="evenodd"/><path d="M162.5 158.533C162.5 155.219 165.186 152.532 168.5 152.532 171.814 152.532 174.5 155.219 174.5 158.533 174.5 161.848 171.814 164.535 168.5 164.535 165.186 164.535 162.5 161.848 162.5 158.533Z" stroke="#202020" stroke-width="0.333263" stroke-miterlimit="8" fill="#BBE0E3" fill-rule="evenodd"/><path d="M183.5 170.536C183.5 167.221 186.186 164.535 189.5 164.535 192.814 164.535 195.5 167.221 195.5 170.536 195.5 173.85 192.814 176.537 189.5 176.537 186.186 176.537 183.5 173.85 183.5 170.536Z" stroke="#202020" stroke-width="0.333263" stroke-miterlimit="8" fill="#BBE0E3" fill-rule="evenodd"/><path d="M0 0 14.6894 31.6974" stroke="#202020" stroke-width="0.333263" stroke-miterlimit="8" fill="#BBE0E3" fill-rule="evenodd" transform="matrix(-1 0 0 1.00021 156.189 195.541)"/><path d="M153.5 192.04C153.5 189.002 156.186 186.539 159.5 186.539 162.814 186.539 165.5 189.002 165.5 192.04 165.5 195.079 162.814 197.542 159.5 197.542 156.186 197.542 153.5 195.079 153.5 192.04Z" stroke="#202020" stroke-width="0.333263" stroke-miterlimit="8" fill="#BBE0E3" fill-rule="evenodd"/><path d="M0 6C-7.00223e-16 2.68629 2.46243 -7.6388e-16 5.5-1.52776e-15 8.53757-3.05552e-15 11 2.68629 11 6 11 9.31371 8.53757 12 5.5 12 2.46243 12-3.50112e-15 9.31371 0 6Z" stroke="#202020" stroke-width="0.333263" stroke-miterlimit="8" fill="#BBE0E3" fill-rule="evenodd" transform="matrix(-1 0 0 1.00021 144.5 225.547)"/><path d="M0 0 21.1644 5.9916" stroke="#202020" stroke-width="0.333263" stroke-miterlimit="8" fill="#BBE0E3" fill-rule="evenodd" transform="matrix(1 0 0 -1.00021 112.5 237.542)"/><path d="M79.5 215.545 103.467 234.587" stroke="#202020" stroke-width="0.333263" stroke-miterlimit="8" fill="#BBE0E3" fill-rule="evenodd"/><path d="M76.5 236.55 102.11 237.613" stroke="#202020" stroke-width="0.333263" stroke-miterlimit="8" fill="#BBE0E3" fill-rule="evenodd"/><path d="M0 0 22.5174 17.395" stroke="#202020" stroke-width="0.333263" stroke-miterlimit="8" fill="#BBE0E3" fill-rule="evenodd" transform="matrix(1 0 0 -1.00021 79.5 259.95)"/><path d="M0 6C-7.6388e-16 2.68629 2.68629 -7.6388e-16 6-1.52776e-15 9.31371-3.05552e-15 12 2.68629 12 6 12 9.31371 9.31371 12 6 12 2.68629 12-3.8194e-15 9.31371 0 6Z" stroke="#202020" stroke-width="0.333263" stroke-miterlimit="8" fill="#BBE0E3" fill-rule="evenodd" transform="matrix(-1 0 0 1.00021 112.5 231.549)"/><path d="M0 5.5C-7.00223e-16 2.46243 2.46243 -7.00223e-16 5.5-1.40045e-15 8.53757-2.80089e-15 11 2.46243 11 5.5 11 8.53757 8.53757 11 5.5 11 2.46243 11-3.50112e-15 8.53757 0 5.5Z" stroke="#202020" stroke-width="0.333263" stroke-miterlimit="8" fill="#BBE0E3" fill-rule="evenodd" transform="matrix(-1 0 0 1.00021 81.5 206.543)"/><path d="M0 6C-7.6388e-16 2.68629 2.68629 -7.6388e-16 6-1.52776e-15 9.31371-3.05552e-15 12 2.68629 12 6 12 9.31371 9.31371 12 6 12 2.68629 12-3.8194e-15 9.31371 0 6Z" stroke="#202020" stroke-width="0.333263" stroke-miterlimit="8" fill="#BBE0E3" fill-rule="evenodd" transform="matrix(-1 0 0 1.00021 83.5 256.554)"/><path d="M0 0 9.85735 28.7017" stroke="#202020" stroke-width="0.333263" stroke-miterlimit="8" fill="#BBE0E3" fill-rule="evenodd" transform="matrix(1 0 0 -1.00021 125.5 264.257)"/><path d="M0 0 27.0595 11.1135" stroke="#202020" stroke-width="0.333263" stroke-miterlimit="8" fill="#BBE0E3" fill-rule="evenodd" transform="matrix(1 0 0 -1.00021 94.5 279.672)"/><path d="M0 0 18.1685 33.8234" stroke="#202020" stroke-width="0.333263" stroke-miterlimit="8" fill="#BBE0E3" fill-rule="evenodd" transform="matrix(1 0 0 -1.00021 105.5 298.386)"/><path d="M124.916 310.158 122.5 272.557" stroke="#202020" stroke-width="0.333263" stroke-miterlimit="8" fill="#BBE0E3" fill-rule="evenodd"/><path d="M0 5.5C-7.6388e-16 2.46243 2.68629 -7.00223e-16 6-1.40045e-15 9.31371-2.80089e-15 12 2.46243 12 5.5 12 8.53757 9.31371 11 6 11 2.68629 11-3.8194e-15 8.53757 0 5.5Z" stroke="#202020" stroke-width="0.333263" stroke-miterlimit="8" fill="#BBE0E3" fill-rule="evenodd" transform="matrix(-1 0 0 1.00021 128.5 261.555)"/><path d="M0 6C-7.00223e-16 2.68629 2.46243 -7.6388e-16 5.5-1.52776e-15 8.53757-3.05552e-15 11 2.68629 11 6 11 9.31371 8.53757 12 5.5 12 2.46243 12-3.50112e-15 9.31371 0 6Z" stroke="#202020" stroke-width="0.333263" stroke-miterlimit="8" fill="#BBE0E3" fill-rule="evenodd" transform="matrix(-1 0 0 1.00021 96.5 277.558)"/><path d="M0 6C-7.00223e-16 2.68629 2.46243 -7.6388e-16 5.5-1.52776e-15 8.53757-3.05552e-15 11 2.68629 11 6 11 9.31371 8.53757 12 5.5 12 2.46243 12-3.50112e-15 9.31371 0 6Z" stroke="#202020" stroke-width="0.333263" stroke-miterlimit="8" fill="#BBE0E3" fill-rule="evenodd" transform="matrix(-1 0 0 1.00021 113.5 291.561)"/><path d="M0 6C-7.00223e-16 2.68629 2.46243 -7.6388e-16 5.5-1.52776e-15 8.53757-3.05552e-15 11 2.68629 11 6 11 9.31371 8.53757 12 5.5 12 2.46243 12-3.50112e-15 9.31371 0 6Z" stroke="#202020" stroke-width="0.333263" stroke-miterlimit="8" fill="#BBE0E3" fill-rule="evenodd" transform="matrix(-1 0 0 1.00021 130.5 298.563)"/><path d="M0 6C-7.00223e-16 2.68629 2.46243 -7.6388e-16 5.5-1.52776e-15 8.53757-3.05552e-15 11 2.68629 11 6 11 9.31371 8.53757 12 5.5 12 2.46243 12-3.50112e-15 9.31371 0 6Z" stroke="#202020" stroke-width="0.333263" stroke-miterlimit="8" fill="#BBE0E3" fill-rule="evenodd" transform="matrix(-1 0 0 1.00021 76.5 230.548)"/><path d="M154.58 256.848 142.5 236.55" stroke="#202020" stroke-width="0.333263" stroke-miterlimit="8" fill="#BBE0E3" fill-rule="evenodd"/><path d="M0 0 4.15556 40.0083" stroke="#202020" stroke-width="0.333263" stroke-miterlimit="8" fill="#BBE0E3" fill-rule="evenodd" transform="matrix(1 0 0 -1.00021 151.5 302.572)"/><path d="M174.278 304.4 153.5 256.554" stroke="#202020" stroke-width="0.333263" stroke-miterlimit="8" fill="#BBE0E3" fill-rule="evenodd"/><path d="M186.106 291.263 157.5 262.555" stroke="#202020" stroke-width="0.333263" stroke-miterlimit="8" fill="#BBE0E3" fill-rule="evenodd"/><path d="M0 5.5C-7.6388e-16 2.46243 2.68629 -7.00223e-16 6-1.40045e-15 9.31371-2.80089e-15 12 2.46243 12 5.5 12 8.53757 9.31371 11 6 11 2.68629 11-3.8194e-15 8.53757 0 5.5Z" stroke="#202020" stroke-width="0.333263" stroke-miterlimit="8" fill="#BBE0E3" fill-rule="evenodd" transform="matrix(-1 0 0 1.00021 156.5 302.564)"/><path d="M0 6C-7.6388e-16 2.68629 2.68629 -7.6388e-16 6-1.52776e-15 9.31371-3.05552e-15 12 2.68629 12 6 12 9.31371 9.31371 12 6 12 2.68629 12-3.8194e-15 9.31371 0 6Z" stroke="#202020" stroke-width="0.333263" stroke-miterlimit="8" fill="#BBE0E3" fill-rule="evenodd" transform="matrix(-1 0 0 1.00021 180.5 298.563)"/><path d="M174.072 240.248 144.5 231.549" stroke="#202020" stroke-width="0.333263" stroke-miterlimit="8" fill="#BBE0E3" fill-rule="evenodd"/><path d="M172.5 243.051C172.5 240.013 175.186 237.55 178.5 237.55 181.814 237.55 184.5 240.013 184.5 243.051 184.5 246.089 181.814 248.552 178.5 248.552 175.186 248.552 172.5 246.089 172.5 243.051Z" stroke="#202020" stroke-width="0.333263" stroke-miterlimit="8" fill="#BBE0E3" fill-rule="evenodd"/><path d="M201.374 271.654 180.5 248.552" stroke="#202020" stroke-width="0.333263" stroke-miterlimit="8" fill="#BBE0E3" fill-rule="evenodd"/><path d="M205.921 258.407 183.5 245.552" stroke="#202020" stroke-width="0.333263" stroke-miterlimit="8" fill="#BBE0E3" fill-rule="evenodd"/><path d="M0 0 26.5763 0.386585" stroke="#202020" stroke-width="0.333263" stroke-miterlimit="8" fill="#BBE0E3" fill-rule="evenodd" transform="matrix(-1 0 0 1.00021 211.076 242.551)"/><path d="M0 6C-7.00223e-16 2.68629 2.46243 -7.6388e-16 5.5-1.52776e-15 8.53757-3.05552e-15 11 2.68629 11 6 11 9.31371 8.53757 12 5.5 12 2.46243 12-3.50112e-15 9.31371 0 6Z" stroke="#202020" stroke-width="0.333263" stroke-miterlimit="8" fill="#BBE0E3" fill-rule="evenodd" transform="matrix(-1 0 0 1.00021 210.5 269.557)"/><path d="M0 6C-7.00223e-16 2.68629 2.46243 -7.6388e-16 5.5-1.52776e-15 8.53757-3.05552e-15 11 2.68629 11 6 11 9.31371 8.53757 12 5.5 12 2.46243 12-3.50112e-15 9.31371 0 6Z" stroke="#202020" stroke-width="0.333263" stroke-miterlimit="8" fill="#BBE0E3" fill-rule="evenodd" transform="matrix(-1 0 0 1.00021 217.5 252.553)"/><path d="M0 5.5C-7.6388e-16 2.46243 2.68629 -7.00223e-16 6-1.40045e-15 9.31371-2.80089e-15 12 2.46243 12 5.5 12 8.53757 9.31371 11 6 11 2.68629 11-3.8194e-15 8.53757 0 5.5Z" stroke="#202020" stroke-width="0.333263" stroke-miterlimit="8" fill="#BBE0E3" fill-rule="evenodd" transform="matrix(-1 0 0 1.00021 222.5 237.55)"/><path d="M0 5.5C-7.6388e-16 2.46243 2.68629 -7.00223e-16 6-1.40045e-15 9.31371-2.80089e-15 12 2.46243 12 5.5 12 8.53757 9.31371 11 6 11 2.68629 11-3.8194e-15 8.53757 0 5.5Z" stroke="#202020" stroke-width="0.333263" stroke-miterlimit="8" fill="#BBE0E3" fill-rule="evenodd" transform="matrix(-1 0 0 1.00021 161.5 253.553)"/><path d="M0 5.5C-7.00223e-16 2.46243 2.46243 -7.00223e-16 5.5-1.40045e-15 8.53757-2.80089e-15 11 2.46243 11 5.5 11 8.53757 8.53757 11 5.5 11 2.46243 11-3.50112e-15 8.53757 0 5.5Z" stroke="#202020" stroke-width="0.333263" stroke-miterlimit="8" fill="#BBE0E3" fill-rule="evenodd" transform="matrix(-1 0 0 1.00021 195.5 287.56)"/><path d="M0 0 34.2109 18.6512" stroke="#202020" stroke-width="0.333263" stroke-miterlimit="8" fill="#BBE0E3" fill-rule="evenodd" transform="matrix(-1 0 0 1.00021 177.711 209.544)"/><path d="M0 0 24.4502 12.8529" stroke="#202020" stroke-width="0.333263" stroke-miterlimit="8" fill="#BBE0E3" fill-rule="evenodd" transform="matrix(-1 0 0 1.00021 205.95 193.541)"/><path d="M0 0 25.2233 1.93282" stroke="#202020" stroke-width="0.333263" stroke-miterlimit="8" fill="#BBE0E3" fill-rule="evenodd" transform="matrix(-1 0 0 1.00021 211.723 206.543)"/><path d="M210.976 225.463 181.5 211.544" stroke="#202020" stroke-width="0.333263" stroke-miterlimit="8" fill="#BBE0E3" fill-rule="evenodd"/><path d="M174.5 209.544C174.5 206.23 177.186 203.543 180.5 203.543 183.814 203.543 186.5 206.23 186.5 209.544 186.5 212.858 183.814 215.545 180.5 215.545 177.186 215.545 174.5 212.858 174.5 209.544Z" stroke="#202020" stroke-width="0.333263" stroke-miterlimit="8" fill="#0070C0" fill-rule="evenodd"/><path d="M0 5.5C-7.00223e-16 2.46243 2.46243 -7.00223e-16 5.5-1.40045e-15 8.53757-2.80089e-15 11 2.46243 11 5.5 11 8.53757 8.53757 11 5.5 11 2.46243 11-3.50112e-15 8.53757 0 5.5Z" stroke="#202020" stroke-width="0.333263" stroke-miterlimit="8" fill="#BBE0E3" fill-rule="evenodd" transform="matrix(-1 0 0 1.00021 222.5 219.546)"/><path d="M0 6C-7.00223e-16 2.68629 2.46243 -7.6388e-16 5.5-1.52776e-15 8.53757-3.05552e-15 11 2.68629 11 6 11 9.31371 8.53757 12 5.5 12 2.46243 12-3.50112e-15 9.31371 0 6Z" stroke="#202020" stroke-width="0.333263" stroke-miterlimit="8" fill="#BBE0E3" fill-rule="evenodd" transform="matrix(-1 0 0 1.00021 222.5 199.542)"/><path d="M0 5.5C-7.6388e-16 2.46243 2.68629 -7.00223e-16 6-1.40045e-15 9.31371-2.80089e-15 12 2.46243 12 5.5 12 8.53757 9.31371 11 6 11 2.68629 11-3.8194e-15 8.53757 0 5.5Z" stroke="#202020" stroke-width="0.333263" stroke-miterlimit="8" fill="#BBE0E3" fill-rule="evenodd" transform="matrix(-1 0 0 1.00021 216.5 184.539)"/><path d="M268.321 216.861 185.5 211.544" stroke="#202020" stroke-width="0.333263" stroke-miterlimit="8" fill="#BBE0E3" fill-rule="evenodd"/><path d="M0 6C-7.6388e-16 2.68629 2.68629 -7.6388e-16 6-1.52776e-15 9.31371-3.05552e-15 12 2.68629 12 6 12 9.31371 9.31371 12 6 12 2.68629 12-3.8194e-15 9.31371 0 6Z" stroke="#202020" stroke-width="0.333263" stroke-miterlimit="8" fill="#FFC000" fill-rule="evenodd" transform="matrix(-1 0 0 1.00021 283.5 233.549)"/><path d="M273.429 235.881 268.5 219.546" stroke="#202020" stroke-width="0.333263" stroke-miterlimit="8" fill="#BBE0E3" fill-rule="evenodd"/><path d="M0 0 11.307 8.11766" stroke="#202020" stroke-width="0.333263" stroke-miterlimit="8" fill="#BBE0E3" fill-rule="evenodd" transform="matrix(-1 0 0 1.00021 294.807 231.549)"/><path d="M290.5 215.545 295.622 230.624" stroke="#202020" stroke-width="0.333263" stroke-miterlimit="8" fill="#BBE0E3" fill-rule="evenodd"/><path d="M0 5.5C-7.6388e-16 2.46243 2.68629 -7.00223e-16 6-1.40045e-15 9.31371-2.80089e-15 12 2.46243 12 5.5 12 8.53757 9.31371 11 6 11 2.68629 11-3.8194e-15 8.53757 0 5.5Z" stroke="#202020" stroke-width="0.333263" stroke-miterlimit="8" fill="#FFC000" fill-rule="evenodd" transform="matrix(-1 0 0 1.00021 296.5 206.543)"/><path d="M0 0 16.0424 5.02519" stroke="#202020" stroke-width="0.333263" stroke-miterlimit="8" fill="#BBE0E3" fill-rule="evenodd" transform="matrix(-1 0 0 1.00021 284.542 212.545)"/><path d="M0 0 3.86564 17.6849" stroke="#202020" stroke-width="0.333263" stroke-miterlimit="8" fill="#BBE0E3" fill-rule="evenodd" transform="matrix(-1 0 0 1.00021 272.366 199.542)"/><path d="M286.353 208.401 273.5 198.542" stroke="#202020" stroke-width="0.333263" stroke-miterlimit="8" fill="#BBE0E3" fill-rule="evenodd"/><path d="M0 6C-7.6388e-16 2.68629 2.68629 -7.6388e-16 6-1.52776e-15 9.31371-3.05552e-15 12 2.68629 12 6 12 9.31371 9.31371 12 6 12 2.68629 12-3.8194e-15 9.31371 0 6Z" stroke="#202020" stroke-width="0.333263" stroke-miterlimit="8" fill="#FFC000" fill-rule="evenodd" transform="matrix(-1 0 0 1.00021 280.5 191.54)"/><path d="M0 5.5C-7.6388e-16 2.46243 2.68629 -7.00223e-16 6-1.40045e-15 9.31371-2.80089e-15 12 2.46243 12 5.5 12 8.53757 9.31371 11 6 11 2.68629 11-3.8194e-15 8.53757 0 5.5Z" stroke="#202020" stroke-width="0.333263" stroke-miterlimit="8" fill="#FFC000" fill-rule="evenodd" transform="matrix(-1 0 0 1.00021 273.5 211.544)"/><path d="M0 5.5C-7.6388e-16 2.46243 2.68629 -7.00223e-16 6-1.40045e-15 9.31371-2.80089e-15 12 2.46243 12 5.5 12 8.53757 9.31371 11 6 11 2.68629 11-3.8194e-15 8.53757 0 5.5Z" stroke="#202020" stroke-width="0.333263" stroke-miterlimit="8" fill="#FFC000" fill-rule="evenodd" transform="matrix(-1 0 0 1.00021 302.5 224.547)"/><text font-family="Times New Roman,Times New Roman_MSFontService,sans-serif" font-weight="700" font-size="46" transform="matrix(1 0 0 1.00021 264.078 311)">...</text><path d="M27.5001 112.723C27.5001 105.984 32.962 100.521 39.6996 100.521L1499.3 100.521C1506.04 100.521 1511.5 105.984 1511.5 112.723L1511.5 400.385C1511.5 407.124 1506.04 412.587 1499.3 412.587L39.6996 412.587C32.962 412.587 27.5001 407.124 27.5001 400.385Z" stroke="#595959" stroke-width="1.33305" stroke-miterlimit="8" fill="none" fill-rule="evenodd"/><path d="M344 247.302 392.5 247.302 392.5 239.05 409 255.554 392.5 272.057 392.5 263.805 344 263.805Z" fill="#0070C0" fill-rule="evenodd"/><rect x="447.5" y="223.547" width="197" height="66.0139" stroke="#000000" stroke-width="1.33305" stroke-miterlimit="8" fill="#BADEE0"/><text font-family="Times New Roman,Times New Roman_MSFontService,sans-serif" font-weight="700" font-size="27" transform="matrix(1 0 0 1.00021 462.453 266)">GNN Encoder</text><path d="M0.666527-2.23329e-06 0.666614 25.9945-0.66644 25.9945-0.666527 2.23329e-06ZM8.70985e-05 25.9945 3.99924 23.3284 0.000104965 31.3268-3.99908 23.3284Z" transform="matrix(1 0 0 -1.00021 545.5 223.874)"/><path d="M546.167 290.561 546.167 316.561 544.834 316.561 544.833 290.561ZM545.5 316.561 549.499 313.894 545.5 321.894 541.501 313.894Z"/><rect x="447.5" y="321.568" width="197" height="66.0139" stroke="#000000" stroke-width="1.33305" stroke-miterlimit="8" fill="#BADEE0"/><text font-family="Times New Roman,Times New Roman_MSFontService,sans-serif" font-weight="700" font-size="27" transform="matrix(1 0 0 1.00021 457.204 363)">Node Attention</text><rect x="447.5" y="126.527" width="197" height="66.0139" stroke="#000000" stroke-width="1.33305" stroke-miterlimit="8" fill="#BADEE0"/><text font-family="Times New Roman,Times New Roman_MSFontService,sans-serif" font-weight="700" font-size="27" transform="matrix(1 0 0 1.00021 457.954 169)">Edge Attention</text><path d="M644.5 160.534 700.622 160.534" stroke="#000000" stroke-width="1.33305" stroke-miterlimit="8" fill="none" fill-rule="evenodd"/><path d="M644.5 357.575 700.622 357.575" stroke="#000000" stroke-width="1.33305" stroke-miterlimit="8" fill="none" fill-rule="evenodd"/><path d="M699.5 160.534 699.5 358.4" stroke="#000000" stroke-width="1.33305" stroke-miterlimit="8" fill="none" fill-rule="evenodd"/><path d="M699 255.22 747.79 255.221 747.79 256.887 699 256.887ZM747.79 256.054 745.124 252.054 753.122 256.054 745.124 260.054Z"/><rect x="760.5" y="186.287" width="41.2429" height="160.286" fill="#BBE0E3"/><path d="M801.743 186.287 815.49 172.536 815.49 332.822 801.743 346.573Z" fill="#96B4B6" fill-rule="evenodd"/><path d="M760.5 186.287 774.248 172.536 815.49 172.536 801.743 186.287Z" fill="#C8E6E8" fill-rule="evenodd"/><path d="M760.5 186.287 774.248 172.536 815.49 172.536 815.49 332.822 801.743 346.573 760.5 346.573ZM760.5 186.287 801.743 186.287 815.49 172.536M801.743 186.287 801.743 346.573" stroke="#404040" stroke-width="0.333263" stroke-miterlimit="8" fill="none" fill-rule="evenodd"/><rect x="800.5" y="186.039" width="40.4999" height="160.534" fill="#F6CAB0"/><path d="M841 186.039 854.5 172.536 854.5 333.07 841 346.573Z" fill="#C6A28D" fill-rule="evenodd"/><path d="M800.5 186.039 814 172.536 854.5 172.536 841 186.039Z" fill="#F8D4BF" fill-rule="evenodd"/><path d="M800.5 186.039 814 172.536 854.5 172.536 854.5 333.07 841 346.573 800.5 346.573ZM800.5 186.039 841 186.039 854.5 172.536M841 186.039 841 346.573" stroke="#404040" stroke-width="0.333263" stroke-miterlimit="8" fill="none" fill-rule="evenodd"/><rect x="841.5" y="186.287" width="41.2429" height="160.286" fill="#D1D5AC"/><path d="M882.743 186.287 896.49 172.536 896.49 332.822 882.743 346.573Z" fill="#A8AB8A" fill-rule="evenodd"/><path d="M841.5 186.287 855.248 172.536 896.49 172.536 882.743 186.287Z" fill="#DADDBC" fill-rule="evenodd"/><path d="M841.5 186.287 855.248 172.536 896.49 172.536 896.49 332.822 882.743 346.573 841.5 346.573ZM841.5 186.287 882.743 186.287 896.49 172.536M882.743 186.287 882.743 346.573" stroke="#404040" stroke-width="0.333263" stroke-miterlimit="8" fill="none" fill-rule="evenodd"/><rect x="881.5" y="186.039" width="40.4999" height="160.534" fill="#DCEBF7"/><path d="M922 186.039 935.5 172.536 935.5 333.07 922 346.573Z" fill="#B1BDC7" fill-rule="evenodd"/><path d="M881.5 186.039 895 172.536 935.5 172.536 922 186.039Z" fill="#E3EFF9" fill-rule="evenodd"/><path d="M881.5 186.039 895 172.536 935.5 172.536 935.5 333.07 922 346.573 881.5 346.573ZM881.5 186.039 922 186.039 935.5 172.536M922 186.039 922 346.573" stroke="#404040" stroke-width="0.333263" stroke-miterlimit="8" fill="none" fill-rule="evenodd"/><rect x="1036.5" y="186.039" width="40.5" height="160.534" fill="#FFFFFF"/><path d="M1077 186.039 1090.5 172.536 1090.5 333.07 1077 346.573Z" fill="#CDCDCD" fill-rule="evenodd"/><path d="M1036.5 186.039 1050 172.536 1090.5 172.536 1077 186.039Z" fill="#FFFFFF" fill-rule="evenodd"/><path d="M1036.5 186.039 1050 172.536 1090.5 172.536 1090.5 333.07 1077 346.573 1036.5 346.573ZM1036.5 186.039 1077 186.039 1090.5 172.536M1077 186.039 1077 346.573" stroke="#404040" stroke-width="0.333263" stroke-miterlimit="8" fill="none" fill-rule="evenodd"/><text font-family="Times New Roman,Times New Roman_MSFontService,sans-serif" font-style="italic" font-weight="700" font-size="27" transform="matrix(1 0 0 1.00021 741.111 157)">4 attention heads</text><path d="M940.5 255.887 1030.81 255.887 1030.81 257.221 940.5 257.221ZM1030.81 256.554 1028.15 252.554 1036.15 256.554 1028.15 260.554Z"/><text font-family="Times New Roman,Times New Roman_MSFontService,sans-serif" font-weight="700" font-size="27" transform="matrix(1 0 0 1.00021 766.706 386)">GraphConv1<tspan font-style="italic" font-size="27" x="205.29" y="-228.952">1 attention head</tspan><tspan font-size="27" x="212.289" y="0">GraphConv2</tspan></text><path d="M1246.5 223.547 1269.22 258.057" stroke="#202020" stroke-width="0.333263" stroke-miterlimit="8" fill="#BBE0E3" fill-rule="evenodd"/><path d="M1244.5 228.048C1244.5 225.01 1246.96 222.547 1250 222.547 1253.04 222.547 1255.5 225.01 1255.5 228.048 1255.5 231.086 1253.04 233.549 1250 233.549 1246.96 233.549 1244.5 231.086 1244.5 228.048Z" stroke="#202020" stroke-width="0.333263" stroke-miterlimit="8" fill="#BBE0E3" fill-rule="evenodd"/><path d="M1281.5 191.54 1290.97 217.64" stroke="#202020" stroke-width="0.333263" stroke-miterlimit="8" fill="#BBE0E3" fill-rule="evenodd"/><path d="M0 0 7.53962 22.3253" stroke="#202020" stroke-width="0.333263" stroke-miterlimit="8" fill="#BBE0E3" fill-rule="evenodd" transform="matrix(-1 0 0 1.00021 1301.04 194.541)"/><path d="M0 0 30.255 21.7455" stroke="#202020" stroke-width="0.333263" stroke-miterlimit="8" fill="#BBE0E3" fill-rule="evenodd" transform="matrix(-1 0 0 1.00021 1319.75 204.543)"/><path d="M1275.5 186.039C1275.5 183.001 1278.19 180.538 1281.5 180.538 1284.81 180.538 1287.5 183.001 1287.5 186.039 1287.5 189.077 1284.81 191.54 1281.5 191.54 1278.19 191.54 1275.5 189.077 1275.5 186.039Z" stroke="#202020" stroke-width="0.333263" stroke-miterlimit="8" fill="#BBE0E3" fill-rule="evenodd"/><path d="M1296.5 189.04C1296.5 186.002 1299.19 183.539 1302.5 183.539 1305.81 183.539 1308.5 186.002 1308.5 189.04 1308.5 192.078 1305.81 194.541 1302.5 194.541 1299.19 194.541 1296.5 192.078 1296.5 189.04Z" stroke="#202020" stroke-width="0.333263" stroke-miterlimit="8" fill="#BBE0E3" fill-rule="evenodd"/><path d="M1317.5 200.542C1317.5 197.228 1320.19 194.541 1323.5 194.541 1326.81 194.541 1329.5 197.228 1329.5 200.542 1329.5 203.857 1326.81 206.543 1323.5 206.543 1320.19 206.543 1317.5 203.857 1317.5 200.542Z" stroke="#202020" stroke-width="0.333263" stroke-miterlimit="8" fill="#BBE0E3" fill-rule="evenodd"/><path d="M0 0 14.6925 31.7" stroke="#202020" stroke-width="0.333263" stroke-miterlimit="8" fill="#BBE0E3" fill-rule="evenodd" transform="matrix(-1 0 0 1.00021 1290.19 226.548)"/><path d="M1287.5 222.547C1287.5 219.232 1289.96 216.546 1293 216.546 1296.04 216.546 1298.5 219.232 1298.5 222.547 1298.5 225.861 1296.04 228.548 1293 228.548 1289.96 228.548 1287.5 225.861 1287.5 222.547Z" stroke="#202020" stroke-width="0.333263" stroke-miterlimit="8" fill="#BBE0E3" fill-rule="evenodd"/><path d="M0 5.5C-7.6388e-16 2.46243 2.68629 -7.00223e-16 6-1.40045e-15 9.31371-2.80089e-15 12 2.46243 12 5.5 12 8.53757 9.31371 11 6 11 2.68629 11-3.8194e-15 8.53757 0 5.5Z" stroke="#202020" stroke-width="0.333263" stroke-miterlimit="8" fill="#BBE0E3" fill-rule="evenodd" transform="matrix(-1 0 0 1.00021 1278.5 256.554)"/><path d="M0 0 21.1688 5.99213" stroke="#202020" stroke-width="0.333263" stroke-miterlimit="8" fill="#BBE0E3" fill-rule="evenodd" transform="matrix(1 0 0 -1.00021 1245.5 268.549)"/><path d="M0 5.5C-7.00223e-16 2.46243 2.46243 -7.00223e-16 5.5-1.40045e-15 8.53757-2.80089e-15 11 2.46243 11 5.5 11 8.53757 8.53757 11 5.5 11 2.46243 11-3.50112e-15 8.53757 0 5.5Z" stroke="#202020" stroke-width="0.333263" stroke-miterlimit="8" fill="#BBE0E3" fill-rule="evenodd" transform="matrix(-1 0 0 1.00021 1245.5 262.555)"/><path d="M0 0 9.85945 28.704" stroke="#202020" stroke-width="0.333263" stroke-miterlimit="8" fill="#BBE0E3" fill-rule="evenodd" transform="matrix(1 0 0 -1.00021 1258.5 295.266)"/><path d="M0 0 27.0652 11.1143" stroke="#202020" stroke-width="0.333263" stroke-miterlimit="8" fill="#BBE0E3" fill-rule="evenodd" transform="matrix(1 0 0 -1.00021 1228.5 309.679)"/><path d="M0 0 18.1723 33.8263" stroke="#202020" stroke-width="0.333263" stroke-miterlimit="8" fill="#BBE0E3" fill-rule="evenodd" transform="matrix(1 0 0 -1.00021 1238.5 329.395)"/><path d="M1258.92 341.167 1256.5 303.564" stroke="#202020" stroke-width="0.333263" stroke-miterlimit="8" fill="#BBE0E3" fill-rule="evenodd"/><path d="M0 6C-7.6388e-16 2.68629 2.68629 -7.6388e-16 6-1.52776e-15 9.31371-3.05552e-15 12 2.68629 12 6 12 9.31371 9.31371 12 6 12 2.68629 12-3.8194e-15 9.31371 0 6Z" stroke="#202020" stroke-width="0.333263" stroke-miterlimit="8" fill="#BBE0E3" fill-rule="evenodd" transform="matrix(-1 0 0 1.00021 1262.5 291.561)"/><path d="M0 6C-7.6388e-16 2.68629 2.68629 -7.6388e-16 6-1.52776e-15 9.31371-3.05552e-15 12 2.68629 12 6 12 9.31371 9.31371 12 6 12 2.68629 12-3.8194e-15 9.31371 0 6Z" stroke="#202020" stroke-width="0.333263" stroke-miterlimit="8" fill="#BBE0E3" fill-rule="evenodd" transform="matrix(-1 0 0 1.00021 1230.5 307.565)"/><path d="M0 6C-7.00223e-16 2.68629 2.46243 -7.6388e-16 5.5-1.52776e-15 8.53757-3.05552e-15 11 2.68629 11 6 11 9.31371 8.53757 12 5.5 12 2.46243 12-3.50112e-15 9.31371 0 6Z" stroke="#202020" stroke-width="0.333263" stroke-miterlimit="8" fill="#BBE0E3" fill-rule="evenodd" transform="matrix(-1 0 0 1.00021 1247.5 321.568)"/><path d="M0 5.5C-7.00223e-16 2.46243 2.46243 -7.00223e-16 5.5-1.40045e-15 8.53757-2.80089e-15 11 2.46243 11 5.5 11 8.53757 8.53757 11 5.5 11 2.46243 11-3.50112e-15 8.53757 0 5.5Z" stroke="#202020" stroke-width="0.333263" stroke-miterlimit="8" fill="#BBE0E3" fill-rule="evenodd" transform="matrix(-1 0 0 1.00021 1264.5 329.569)"/><path d="M1288.58 287.856 1276.5 267.556" stroke="#202020" stroke-width="0.333263" stroke-miterlimit="8" fill="#BBE0E3" fill-rule="evenodd"/><path d="M1308.08 271.255 1278.5 262.555" stroke="#202020" stroke-width="0.333263" stroke-miterlimit="8" fill="#BBE0E3" fill-rule="evenodd"/><path d="M1306.5 273.557C1306.5 270.243 1309.19 267.556 1312.5 267.556 1315.81 267.556 1318.5 270.243 1318.5 273.557 1318.5 276.872 1315.81 279.559 1312.5 279.559 1309.19 279.559 1306.5 276.872 1306.5 273.557Z" stroke="#202020" stroke-width="0.333263" stroke-miterlimit="8" fill="#BBE0E3" fill-rule="evenodd"/><path d="M1335.38 302.662 1314.5 279.559" stroke="#202020" stroke-width="0.333263" stroke-miterlimit="8" fill="#BBE0E3" fill-rule="evenodd"/><path d="M1339.93 288.415 1317.5 275.558" stroke="#202020" stroke-width="0.333263" stroke-miterlimit="8" fill="#BBE0E3" fill-rule="evenodd"/><path d="M0 0 26.5818 0.386585" stroke="#202020" stroke-width="0.333263" stroke-miterlimit="8" fill="#BBE0E3" fill-rule="evenodd" transform="matrix(-1 0 0 1.00021 1345.08 272.557)"/><path d="M0 5.5C-7.00223e-16 2.46243 2.46243 -7.00223e-16 5.5-1.40045e-15 8.53757-2.80089e-15 11 2.46243 11 5.5 11 8.53757 8.53757 11 5.5 11 2.46243 11-3.50112e-15 8.53757 0 5.5Z" stroke="#202020" stroke-width="0.333263" stroke-miterlimit="8" fill="#BBE0E3" fill-rule="evenodd" transform="matrix(-1 0 0 1.00021 1344.5 300.563)"/><path d="M0 5.5C-7.6388e-16 2.46243 2.68629 -7.00223e-16 6-1.40045e-15 9.31371-2.80089e-15 12 2.46243 12 5.5 12 8.53757 9.31371 11 6 11 2.68629 11-3.8194e-15 8.53757 0 5.5Z" stroke="#202020" stroke-width="0.333263" stroke-miterlimit="8" fill="#BBE0E3" fill-rule="evenodd" transform="matrix(-1 0 0 1.00021 1351.5 283.56)"/><path d="M0 6C-7.6388e-16 2.68629 2.68629 -7.6388e-16 6-1.52776e-15 9.31371-3.05552e-15 12 2.68629 12 6 12 9.31371 9.31371 12 6 12 2.68629 12-3.8194e-15 9.31371 0 6Z" stroke="#202020" stroke-width="0.333263" stroke-miterlimit="8" fill="#BBE0E3" fill-rule="evenodd" transform="matrix(-1 0 0 1.00021 1356.5 267.556)"/><path d="M0 6C-7.00223e-16 2.68629 2.46243 -7.6388e-16 5.5-1.52776e-15 8.53757-3.05552e-15 11 2.68629 11 6 11 9.31371 8.53757 12 5.5 12 2.46243 12-3.50112e-15 9.31371 0 6Z" stroke="#202020" stroke-width="0.333263" stroke-miterlimit="8" fill="#BBE0E3" fill-rule="evenodd" transform="matrix(-1 0 0 1.00021 1294.5 283.56)"/><path d="M0 0 34.218 18.6528" stroke="#202020" stroke-width="0.333263" stroke-miterlimit="8" fill="#BBE0E3" fill-rule="evenodd" transform="matrix(-1 0 0 1.00021 1311.72 239.55)"/><path d="M0 0 24.4552 12.854" stroke="#202020" stroke-width="0.333263" stroke-miterlimit="8" fill="#BBE0E3" fill-rule="evenodd" transform="matrix(-1 0 0 1.00021 1339.96 223.547)"/><path d="M0 0 25.2286 1.93293" stroke="#202020" stroke-width="0.333263" stroke-miterlimit="8" fill="#BBE0E3" fill-rule="evenodd" transform="matrix(-1 0 0 1.00021 1344.73 237.55)"/><path d="M1344.98 255.471 1315.5 241.551" stroke="#202020" stroke-width="0.333263" stroke-miterlimit="8" fill="#BBE0E3" fill-rule="evenodd"/><path d="M1308.5 239.55C1308.5 236.236 1310.96 233.549 1314 233.549 1317.04 233.549 1319.5 236.236 1319.5 239.55 1319.5 242.865 1317.04 245.552 1314 245.552 1310.96 245.552 1308.5 242.865 1308.5 239.55Z" stroke="#202020" stroke-width="0.333263" stroke-miterlimit="8" fill="#0070C0" fill-rule="evenodd"/><path d="M0 6C-7.6388e-16 2.68629 2.68629 -7.6388e-16 6-1.52776e-15 9.31371-3.05552e-15 12 2.68629 12 6 12 9.31371 9.31371 12 6 12 2.68629 12-3.8194e-15 9.31371 0 6Z" stroke="#202020" stroke-width="0.333263" stroke-miterlimit="8" fill="#BBE0E3" fill-rule="evenodd" transform="matrix(-1 0 0 1.00021 1356.5 249.552)"/><path d="M0 5.5C-7.6388e-16 2.46243 2.68629 -7.00223e-16 6-1.40045e-15 9.31371-2.80089e-15 12 2.46243 12 5.5 12 8.53757 9.31371 11 6 11 2.68629 11-3.8194e-15 8.53757 0 5.5Z" stroke="#202020" stroke-width="0.333263" stroke-miterlimit="8" fill="#BBE0E3" fill-rule="evenodd" transform="matrix(-1 0 0 1.00021 1356.5 230.548)"/><path d="M0 6C-7.6388e-16 2.68629 2.68629 -7.6388e-16 6-1.52776e-15 9.31371-3.05552e-15 12 2.68629 12 6 12 9.31371 9.31371 12 6 12 2.68629 12-3.8194e-15 9.31371 0 6Z" stroke="#202020" stroke-width="0.333263" stroke-miterlimit="8" fill="#BBE0E3" fill-rule="evenodd" transform="matrix(-1 0 0 1.00021 1350.5 214.545)"/><path d="M1402.34 246.867 1319.5 241.551" stroke="#202020" stroke-width="0.333263" stroke-miterlimit="8" fill="#BBE0E3" fill-rule="evenodd"/><path d="M0 5.5C-7.00223e-16 2.46243 2.46243 -7.00223e-16 5.5-1.40045e-15 8.53757-2.80089e-15 11 2.46243 11 5.5 11 8.53757 8.53757 11 5.5 11 2.46243 11-3.50112e-15 8.53757 0 5.5Z" stroke="#202020" stroke-width="0.333263" stroke-miterlimit="8" fill="#FFC000" fill-rule="evenodd" transform="matrix(-1 0 0 1.00021 1416.5 264.556)"/><path d="M1407.43 265.889 1402.5 249.552" stroke="#202020" stroke-width="0.333263" stroke-miterlimit="8" fill="#BBE0E3" fill-rule="evenodd"/><path d="M0 0 11.3093 8.11829" stroke="#202020" stroke-width="0.333263" stroke-miterlimit="8" fill="#BBE0E3" fill-rule="evenodd" transform="matrix(-1 0 0 1.00021 1427.81 261.555)"/><path d="M1424.5 245.552 1429.62 260.632" stroke="#202020" stroke-width="0.333263" stroke-miterlimit="8" fill="#BBE0E3" fill-rule="evenodd"/><path d="M0 6C-7.00223e-16 2.68629 2.46243 -7.6388e-16 5.5-1.52776e-15 8.53757-3.05552e-15 11 2.68629 11 6 11 9.31371 8.53757 12 5.5 12 2.46243 12-3.50112e-15 9.31371 0 6Z" stroke="#202020" stroke-width="0.333263" stroke-miterlimit="8" fill="#FFC000" fill-rule="evenodd" transform="matrix(-1 0 0 1.00021 1429.5 236.55)"/><path d="M0 0 16.0458 5.02561" stroke="#202020" stroke-width="0.333263" stroke-miterlimit="8" fill="#BBE0E3" fill-rule="evenodd" transform="matrix(-1 0 0 1.00021 1418.55 242.551)"/><path d="M0 0 3.86648 17.6863" stroke="#202020" stroke-width="0.333263" stroke-miterlimit="8" fill="#BBE0E3" fill-rule="evenodd" transform="matrix(-1 0 0 1.00021 1406.37 229.548)"/><path d="M1420.36 238.408 1407.5 228.548" stroke="#202020" stroke-width="0.333263" stroke-miterlimit="8" fill="#BBE0E3" fill-rule="evenodd"/><path d="M0 5.5C-7.00223e-16 2.46243 2.46243 -7.00223e-16 5.5-1.40045e-15 8.53757-2.80089e-15 11 2.46243 11 5.5 11 8.53757 8.53757 11 5.5 11 2.46243 11-3.50112e-15 8.53757 0 5.5Z" stroke="#202020" stroke-width="0.333263" stroke-miterlimit="8" fill="#FFC000" fill-rule="evenodd" transform="matrix(-1 0 0 1.00021 1413.5 222.547)"/><path d="M0 6C-7.6388e-16 2.68629 2.68629 -7.6388e-16 6-1.52776e-15 9.31371-3.05552e-15 12 2.68629 12 6 12 9.31371 9.31371 12 6 12 2.68629 12-3.8194e-15 9.31371 0 6Z" stroke="#202020" stroke-width="0.333263" stroke-miterlimit="8" fill="#FFC000" fill-rule="evenodd" transform="matrix(-1 0 0 1.00021 1407.5 241.551)"/><path d="M0 6C-7.6388e-16 2.68629 2.68629 -7.6388e-16 6-1.52776e-15 9.31371-3.05552e-15 12 2.68629 12 6 12 9.31371 9.31371 12 6 12 2.68629 12-3.8194e-15 9.31371 0 6Z" stroke="#202020" stroke-width="0.333263" stroke-miterlimit="8" fill="#FFC000" fill-rule="evenodd" transform="matrix(-1 0 0 1.00021 1436.5 254.553)"/><path d="M27.5001 507.934C27.5001 499.467 34.3621 492.603 42.8269 492.603L1496.17 492.603C1504.64 492.603 1511.5 499.467 1511.5 507.934L1511.5 869.356C1511.5 877.822 1504.64 884.686 1496.17 884.686L42.8269 884.686C34.3621 884.686 27.5001 877.822 27.5001 869.356Z" stroke="#595959" stroke-width="1.33305" stroke-miterlimit="8" fill="none" fill-rule="evenodd"/><text font-family="Times New Roman,Times New Roman_MSFontService,sans-serif" font-style="italic" font-weight="700" font-size="28" transform="matrix(1 0 0 1.00021 39.7916 478)">Causal graph learning max<tspan font-size="28" x="329.264" y="0">I</tspan><tspan font-style="normal" font-size="28" x="340.262" y="0">(</tspan>Y;G<tspan font-size="19" x="397.083" y="5.99874">S</tspan><tspan font-style="normal" font-size="28" x="407.581" y="0">)</tspan></text><path d="M94.5 625.631 116.297 658.751" stroke="#202020" stroke-width="0.333263" stroke-miterlimit="8" fill="#BBE0E3" fill-rule="evenodd"/><path d="M92.5 629.632C92.5 626.318 94.9625 623.631 98 623.631 101.038 623.631 103.5 626.318 103.5 629.632 103.5 632.947 101.038 635.633 98 635.633 94.9625 635.633 92.5 632.947 92.5 629.632Z" stroke="#202020" stroke-width="0.333263" stroke-miterlimit="8" fill="#BBE0E3" fill-rule="evenodd"/><path d="M128.5 594.625 137.59 619.673" stroke="#202020" stroke-width="0.333263" stroke-miterlimit="8" fill="#BBE0E3" fill-rule="evenodd"/><path d="M0 0 7.2346 21.4256" stroke="#202020" stroke-width="0.333263" stroke-miterlimit="8" fill="#BBE0E3" fill-rule="evenodd" transform="matrix(-1 0 0 1.00021 147.735 597.625)"/><path d="M0 0 29.0311 20.8691" stroke="#202020" stroke-width="0.333263" stroke-miterlimit="8" fill="#BBE0E3" fill-rule="evenodd" transform="matrix(-1 0 0 1.00021 164.531 607.628)"/><path d="M122.5 589.124C122.5 586.086 124.962 583.623 128 583.623 131.038 583.623 133.5 586.086 133.5 589.124 133.5 592.162 131.038 594.625 128 594.625 124.962 594.625 122.5 592.162 122.5 589.124Z" stroke="#202020" stroke-width="0.333263" stroke-miterlimit="8" fill="#BBE0E3" fill-rule="evenodd"/><path d="M142.5 592.124C142.5 589.086 144.962 586.623 148 586.623 151.038 586.623 153.5 589.086 153.5 592.124 153.5 595.163 151.038 597.626 148 597.626 144.962 597.626 142.5 595.163 142.5 592.124Z" stroke="#202020" stroke-width="0.333263" stroke-miterlimit="8" fill="#BBE0E3" fill-rule="evenodd"/><path d="M162.5 603.127C162.5 600.088 165.186 597.625 168.5 597.625 171.814 597.625 174.5 600.088 174.5 603.127 174.5 606.165 171.814 608.628 168.5 608.628 165.186 608.628 162.5 606.165 162.5 603.127Z" stroke="#202020" stroke-width="0.333263" stroke-miterlimit="8" fill="#BBE0E3" fill-rule="evenodd"/><path d="M0 0 14.0981 30.4225" stroke="#202020" stroke-width="0.333263" stroke-miterlimit="8" fill="#BBE0E3" fill-rule="evenodd" transform="matrix(-1 0 0 1.00021 136.598 627.632)"/><path d="M133.5 624.131C133.5 621.093 136.186 618.63 139.5 618.63 142.814 618.63 145.5 621.093 145.5 624.131 145.5 627.169 142.814 629.632 139.5 629.632 136.186 629.632 133.5 627.169 133.5 624.131Z" stroke="#202020" stroke-width="0.333263" stroke-miterlimit="8" fill="#BBE0E3" fill-rule="evenodd"/><path d="M0 5.5C-7.00223e-16 2.46243 2.46243 -7.00223e-16 5.5-1.40045e-15 8.53757-2.80089e-15 11 2.46243 11 5.5 11 8.53757 8.53757 11 5.5 11 2.46243 11-3.50112e-15 8.53757 0 5.5Z" stroke="#202020" stroke-width="0.333263" stroke-miterlimit="8" fill="#BBE0E3" fill-rule="evenodd" transform="matrix(-1 0 0 1.00021 125.5 656.638)"/><path d="M0 0 20.3125 5.7506" stroke="#202020" stroke-width="0.333263" stroke-miterlimit="8" fill="#BBE0E3" fill-rule="evenodd" transform="matrix(1 0 0 -1.00021 94.5 668.391)"/><path d="M0 5.5C-7.00223e-16 2.46243 2.46243 -7.00223e-16 5.5-1.40045e-15 8.53757-2.80089e-15 11 2.46243 11 5.5 11 8.53757 8.53757 11 5.5 11 2.46243 11-3.50112e-15 8.53757 0 5.5Z" stroke="#202020" stroke-width="0.333263" stroke-miterlimit="8" fill="#BBE0E3" fill-rule="evenodd" transform="matrix(-1 0 0 1.00021 94.5 662.639)"/><path d="M0 0 9.46058 27.5472" stroke="#202020" stroke-width="0.333263" stroke-miterlimit="8" fill="#BBE0E3" fill-rule="evenodd" transform="matrix(1 0 0 -1.00021 106.5 694.193)"/><path d="M0 0 25.9703 10.6664" stroke="#202020" stroke-width="0.333263" stroke-miterlimit="8" fill="#BBE0E3" fill-rule="evenodd" transform="matrix(1 0 0 -1.00021 77.5 708.315)"/><path d="M0 0 17.4372 32.4631" stroke="#202020" stroke-width="0.333263" stroke-miterlimit="8" fill="#BBE0E3" fill-rule="evenodd" transform="matrix(1 0 0 -1.00021 87.5 726.116)"/><path d="M106.819 737.735 104.5 701.647" stroke="#202020" stroke-width="0.333263" stroke-miterlimit="8" fill="#BBE0E3" fill-rule="evenodd"/><path d="M0 5.5C-7.00223e-16 2.46243 2.46243 -7.00223e-16 5.5-1.40045e-15 8.53757-2.80089e-15 11 2.46243 11 5.5 11 8.53757 8.53757 11 5.5 11 2.46243 11-3.50112e-15 8.53757 0 5.5Z" stroke="#202020" stroke-width="0.333263" stroke-miterlimit="8" fill="#BBE0E3" fill-rule="evenodd" transform="matrix(-1 0 0 1.00021 109.5 690.645)"/><path d="M0 5.5C-7.00223e-16 2.46243 2.46243 -7.00223e-16 5.5-1.40045e-15 8.53757-2.80089e-15 11 2.46243 11 5.5 11 8.53757 8.53757 11 5.5 11 2.46243 11-3.50112e-15 8.53757 0 5.5Z" stroke="#202020" stroke-width="0.333263" stroke-miterlimit="8" fill="#BBE0E3" fill-rule="evenodd" transform="matrix(-1 0 0 1.00021 79.5 706.648)"/><path d="M0 5.5C-7.00223e-16 2.46243 2.46243 -7.00223e-16 5.5-1.40045e-15 8.53757-2.80089e-15 11 2.46243 11 5.5 11 8.53757 8.53757 11 5.5 11 2.46243 11-3.50112e-15 8.53757 0 5.5Z" stroke="#202020" stroke-width="0.333263" stroke-miterlimit="8" fill="#BBE0E3" fill-rule="evenodd" transform="matrix(-1 0 0 1.00021 95.5 719.651)"/><path d="M0 5.5C-7.00223e-16 2.46243 2.46243 -7.00223e-16 5.5-1.40045e-15 8.53757-2.80089e-15 11 2.46243 11 5.5 11 8.53757 8.53757 11 5.5 11 2.46243 11-3.50112e-15 8.53757 0 5.5Z" stroke="#202020" stroke-width="0.333263" stroke-miterlimit="8" fill="#BBE0E3" fill-rule="evenodd" transform="matrix(-1 0 0 1.00021 112.5 726.653)"/><path d="M135.094 686.122 123.5 666.64" stroke="#202020" stroke-width="0.333263" stroke-miterlimit="8" fill="#BBE0E3" fill-rule="evenodd"/><path d="M153.882 670.989 125.5 662.639" stroke="#202020" stroke-width="0.333263" stroke-miterlimit="8" fill="#BBE0E3" fill-rule="evenodd"/><path d="M152.5 673.141C152.5 670.103 154.962 667.64 158 667.64 161.038 667.64 163.5 670.103 163.5 673.141 163.5 676.18 161.038 678.643 158 678.643 154.962 678.643 152.5 676.18 152.5 673.141Z" stroke="#202020" stroke-width="0.333263" stroke-miterlimit="8" fill="#BBE0E3" fill-rule="evenodd"/><path d="M180.534 700.815 160.5 678.643" stroke="#202020" stroke-width="0.333263" stroke-miterlimit="8" fill="#BBE0E3" fill-rule="evenodd"/><path d="M184.018 687.98 162.5 675.642" stroke="#202020" stroke-width="0.333263" stroke-miterlimit="8" fill="#BBE0E3" fill-rule="evenodd"/><path d="M0 0 25.5065 0.371051" stroke="#202020" stroke-width="0.333263" stroke-miterlimit="8" fill="#BBE0E3" fill-rule="evenodd" transform="matrix(-1 0 0 1.00021 189.007 672.641)"/><path d="M0 5.5C-7.6388e-16 2.46243 2.68629 -7.00223e-16 6-1.40045e-15 9.31371-2.80089e-15 12 2.46243 12 5.5 12 8.53757 9.31371 11 6 11 2.68629 11-3.8194e-15 8.53757 0 5.5Z" stroke="#202020" stroke-width="0.333263" stroke-miterlimit="8" fill="#BBE0E3" fill-rule="evenodd" transform="matrix(-1 0 0 1.00021 189.5 698.647)"/><path d="M0 5.5C-7.00223e-16 2.46243 2.46243 -7.00223e-16 5.5-1.40045e-15 8.53757-2.80089e-15 11 2.46243 11 5.5 11 8.53757 8.53757 11 5.5 11 2.46243 11-3.50112e-15 8.53757 0 5.5Z" stroke="#202020" stroke-width="0.333263" stroke-miterlimit="8" fill="#BBE0E3" fill-rule="evenodd" transform="matrix(-1 0 0 1.00021 195.5 682.643)"/><path d="M0 5.5C-7.00223e-16 2.46243 2.46243 -7.00223e-16 5.5-1.40045e-15 8.53757-2.80089e-15 11 2.46243 11 5.5 11 8.53757 8.53757 11 5.5 11 2.46243 11-3.50112e-15 8.53757 0 5.5Z" stroke="#202020" stroke-width="0.333263" stroke-miterlimit="8" fill="#BBE0E3" fill-rule="evenodd" transform="matrix(-1 0 0 1.00021 200.5 667.64)"/><path d="M0 5.5C-7.00223e-16 2.46243 2.46243 -7.00223e-16 5.5-1.40045e-15 8.53757-2.80089e-15 11 2.46243 11 5.5 11 8.53757 8.53757 11 5.5 11 2.46243 11-3.50112e-15 8.53757 0 5.5Z" stroke="#202020" stroke-width="0.333263" stroke-miterlimit="8" fill="#BBE0E3" fill-rule="evenodd" transform="matrix(-1 0 0 1.00021 141.5 682.643)"/><path d="M0 0 32.8338 17.901" stroke="#202020" stroke-width="0.333263" stroke-miterlimit="8" fill="#BBE0E3" fill-rule="evenodd" transform="matrix(-1 0 0 1.00021 157.334 640.635)"/><path d="M0 0 23.4659 12.336" stroke="#202020" stroke-width="0.333263" stroke-miterlimit="8" fill="#BBE0E3" fill-rule="evenodd" transform="matrix(-1 0 0 1.00021 184.966 625.631)"/><path d="M0 0 24.2079 1.85504" stroke="#202020" stroke-width="0.333263" stroke-miterlimit="8" fill="#BBE0E3" fill-rule="evenodd" transform="matrix(-1 0 0 1.00021 189.708 638.634)"/><path d="M189.789 655.994 161.5 642.635" stroke="#202020" stroke-width="0.333263" stroke-miterlimit="8" fill="#BBE0E3" fill-rule="evenodd"/><path d="M153.5 641.135C153.5 638.096 156.186 635.633 159.5 635.633 162.814 635.633 165.5 638.096 165.5 641.135 165.5 644.173 162.814 646.636 159.5 646.636 156.186 646.636 153.5 644.173 153.5 641.135Z" stroke="#202020" stroke-width="0.333263" stroke-miterlimit="8" fill="#0070C0" fill-rule="evenodd"/><path d="M0 5.5C-7.00223e-16 2.46243 2.46243 -7.00223e-16 5.5-1.40045e-15 8.53757-2.80089e-15 11 2.46243 11 5.5 11 8.53757 8.53757 11 5.5 11 2.46243 11-3.50112e-15 8.53757 0 5.5Z" stroke="#202020" stroke-width="0.333263" stroke-miterlimit="8" fill="#BBE0E3" fill-rule="evenodd" transform="matrix(-1 0 0 1.00021 200.5 650.637)"/><path d="M0 5.5C-7.00223e-16 2.46243 2.46243 -7.00223e-16 5.5-1.40045e-15 8.53757-2.80089e-15 11 2.46243 11 5.5 11 8.53757 8.53757 11 5.5 11 2.46243 11-3.50112e-15 8.53757 0 5.5Z" stroke="#202020" stroke-width="0.333263" stroke-miterlimit="8" fill="#BBE0E3" fill-rule="evenodd" transform="matrix(-1 0 0 1.00021 200.5 631.633)"/><path d="M0 5.5C-7.00223e-16 2.46243 2.46243 -7.00223e-16 5.5-1.40045e-15 8.53757-2.80089e-15 11 2.46243 11 5.5 11 8.53757 8.53757 11 5.5 11 2.46243 11-3.50112e-15 8.53757 0 5.5Z" stroke="#202020" stroke-width="0.333263" stroke-miterlimit="8" fill="#BBE0E3" fill-rule="evenodd" transform="matrix(-1 0 0 1.00021 194.5 616.63)"/><path d="M243.988 647.737 164.5 642.635" stroke="#202020" stroke-width="0.333263" stroke-miterlimit="8" fill="#BBE0E3" fill-rule="evenodd"/><path d="M0 5.5C-7.00223e-16 2.46243 2.46243 -7.00223e-16 5.5-1.40045e-15 8.53757-2.80089e-15 11 2.46243 11 5.5 11 8.53757 8.53757 11 5.5 11 2.46243 11-3.50112e-15 8.53757 0 5.5Z" stroke="#202020" stroke-width="0.333263" stroke-miterlimit="8" fill="#FFC000" fill-rule="evenodd" transform="matrix(-1 0 0 1.00021 258.5 664.64)"/><path d="M249.23 666.315 244.5 650.637" stroke="#202020" stroke-width="0.333263" stroke-miterlimit="8" fill="#BBE0E3" fill-rule="evenodd"/><path d="M0 0 10.8519 7.79112" stroke="#202020" stroke-width="0.333263" stroke-miterlimit="8" fill="#BBE0E3" fill-rule="evenodd" transform="matrix(-1 0 0 1.00021 269.352 662.639)"/><path d="M265.5 646.636 270.416 661.108" stroke="#202020" stroke-width="0.333263" stroke-miterlimit="8" fill="#BBE0E3" fill-rule="evenodd"/><path d="M0 5.5C-7.00223e-16 2.46243 2.46243 -7.00223e-16 5.5-1.40045e-15 8.53757-2.80089e-15 11 2.46243 11 5.5 11 8.53757 8.53757 11 5.5 11 2.46243 11-3.50112e-15 8.53757 0 5.5Z" stroke="#202020" stroke-width="0.333263" stroke-miterlimit="8" fill="#FFC000" fill-rule="evenodd" transform="matrix(-1 0 0 1.00021 270.5 637.634)"/><path d="M0 0 15.3967 4.82313" stroke="#202020" stroke-width="0.333263" stroke-miterlimit="8" fill="#BBE0E3" fill-rule="evenodd" transform="matrix(-1 0 0 1.00021 259.897 643.635)"/><path d="M0 0 3.71009 16.9735" stroke="#202020" stroke-width="0.333263" stroke-miterlimit="8" fill="#BBE0E3" fill-rule="evenodd" transform="matrix(-1 0 0 1.00021 248.21 630.632)"/><path d="M260.836 639.095 248.5 629.632" stroke="#202020" stroke-width="0.333263" stroke-miterlimit="8" fill="#BBE0E3" fill-rule="evenodd"/><path d="M0 6C-7.00223e-16 2.68629 2.46243 -7.6388e-16 5.5-1.52776e-15 8.53757-3.05552e-15 11 2.68629 11 6 11 9.31371 8.53757 12 5.5 12 2.46243 12-3.50112e-15 9.31371 0 6Z" stroke="#202020" stroke-width="0.333263" stroke-miterlimit="8" fill="#FFC000" fill-rule="evenodd" transform="matrix(-1 0 0 1.00021 255.5 623.631)"/><path d="M0 5.5C-7.00223e-16 2.46243 2.46243 -7.00223e-16 5.5-1.40045e-15 8.53757-2.80089e-15 11 2.46243 11 5.5 11 8.53757 8.53757 11 5.5 11 2.46243 11-3.50112e-15 8.53757 0 5.5Z" stroke="#202020" stroke-width="0.333263" stroke-miterlimit="8" fill="#FFC000" fill-rule="evenodd" transform="matrix(-1 0 0 1.00021 249.5 642.635)"/><path d="M0 6C-7.00223e-16 2.68629 2.46243 -7.6388e-16 5.5-1.52776e-15 8.53757-3.05552e-15 11 2.68629 11 6 11 9.31371 8.53757 12 5.5 12 2.46243 12-3.50112e-15 9.31371 0 6Z" stroke="#202020" stroke-width="0.333263" stroke-miterlimit="8" fill="#FFC000" fill-rule="evenodd" transform="matrix(-1 0 0 1.00021 276.5 654.637)"/><text font-family="Times New Roman,Times New Roman_MSFontService,sans-serif" font-weight="700" font-size="46" transform="matrix(1 0 0 1.00021 263.745 732)">...</text><path d="M340 639.384 389.5 639.384 389.5 631.133 406 647.636 389.5 664.139 389.5 655.888 340 655.888Z" fill="#0070C0" fill-rule="evenodd"/><path d="M597.5 593.958 646.29 593.958 646.29 595.292 597.5 595.292ZM646.29 594.625 643.624 590.625 651.622 594.625 643.624 598.625Z"/><rect x="442.5" y="554.616" width="139" height="131.027" stroke="#000000" stroke-width="1.33333" stroke-miterlimit="8" fill="#FFECAF"/><rect x="429.5" y="565.619" width="140" height="131.028" stroke="#000000" stroke-width="1.33333" stroke-miterlimit="8" fill="#BBE0E3"/><rect x="417.5" y="577.621" width="139" height="131.027" stroke="#000000" stroke-width="1.33333" stroke-miterlimit="8" fill="#DCEBF7"/><text font-family="Times New Roman,Times New Roman_MSFontService,sans-serif" font-style="italic" font-weight="700" font-size="27" transform="matrix(1 0 0 1.00021 458.637 742)">K<tspan font-size="27" x="18.1628" y="0">-</tspan><tspan font-size="27" x="27.1609" y="0">hop</tspan></text><path d="M718.029 591.824 699.5 590.624" stroke="#202020" stroke-width="0.333263" stroke-miterlimit="8" fill="#BBE0E3" fill-rule="evenodd"/><path d="M0 5.5C-7.6388e-16 2.46243 2.68629 -7.00223e-16 6-1.40045e-15 9.31371-2.80089e-15 12 2.46243 12 5.5 12 8.53757 9.31371 11 6 11 2.68629 11-3.8194e-15 8.53757 0 5.5Z" stroke="#202020" stroke-width="0.333263" stroke-miterlimit="8" fill="#FFC000" fill-rule="evenodd" transform="matrix(-1 0 0 1.00021 733.5 609.628)"/><path d="M723.432 610.958 718.5 594.625" stroke="#202020" stroke-width="0.333263" stroke-miterlimit="8" fill="#BBE0E3" fill-rule="evenodd"/><path d="M0 0 11.331 8.13163" stroke="#202020" stroke-width="0.333263" stroke-miterlimit="8" fill="#BBE0E3" fill-rule="evenodd" transform="matrix(-1 0 0 1.00021 744.831 606.627)"/><path d="M740.5 590.624 745.632 605.691" stroke="#202020" stroke-width="0.333263" stroke-miterlimit="8" fill="#BBE0E3" fill-rule="evenodd"/><path d="M0 5.5C-7.6388e-16 2.46243 2.68629 -7.00223e-16 6-1.40045e-15 9.31371-2.80089e-15 12 2.46243 12 5.5 12 8.53757 9.31371 11 6 11 2.68629 11-3.8194e-15 8.53757 0 5.5Z" stroke="#202020" stroke-width="0.333263" stroke-miterlimit="8" fill="#FFC000" fill-rule="evenodd" transform="matrix(-1 0 0 1.00021 746.5 581.622)"/><path d="M0 0 16.0633 4.99895" stroke="#202020" stroke-width="0.333263" stroke-miterlimit="8" fill="#BBE0E3" fill-rule="evenodd" transform="matrix(-1 0 0 1.00021 734.563 587.623)"/><path d="M0 0 3.86585 17.663" stroke="#202020" stroke-width="0.333263" stroke-miterlimit="8" fill="#BBE0E3" fill-rule="evenodd" transform="matrix(-1 0 0 1.00021 722.366 574.621)"/><path d="M736.364 583.487 723.5 573.62" stroke="#202020" stroke-width="0.333263" stroke-miterlimit="8" fill="#BBE0E3" fill-rule="evenodd"/><path d="M0 6C-7.00223e-16 2.68629 2.46243 -7.6388e-16 5.5-1.52776e-15 8.53757-3.05552e-15 11 2.68629 11 6 11 9.31371 8.53757 12 5.5 12 2.46243 12-3.50112e-15 9.31371 0 6Z" stroke="#202020" stroke-width="0.333263" stroke-miterlimit="8" fill="#FFC000" fill-rule="evenodd" transform="matrix(-1 0 0 1.00021 729.5 566.619)"/><path d="M0 5.5C-7.6388e-16 2.46243 2.68629 -7.00223e-16 6-1.40045e-15 9.31371-2.80089e-15 12 2.46243 12 5.5 12 8.53757 9.31371 11 6 11 2.68629 11-3.8194e-15 8.53757 0 5.5Z" stroke="#202020" stroke-width="0.333263" stroke-miterlimit="8" fill="#FFC000" fill-rule="evenodd" transform="matrix(-1 0 0 1.00021 723.5 586.623)"/><path d="M0 5.5C-7.6388e-16 2.46243 2.68629 -7.00223e-16 6-1.40045e-15 9.31371-2.80089e-15 12 2.46243 12 5.5 12 8.53757 9.31371 11 6 11 2.68629 11-3.8194e-15 8.53757 0 5.5Z" stroke="#202020" stroke-width="0.333263" stroke-miterlimit="8" fill="#FFC000" fill-rule="evenodd" transform="matrix(-1 0 0 1.00021 752.5 599.626)"/><path d="M0 6C-7.00223e-16 2.68629 2.46243 -7.6388e-16 5.5-1.52776e-15 8.53757-3.05552e-15 11 2.68629 11 6 11 9.31371 8.53757 12 5.5 12 2.46243 12-3.50112e-15 9.31371 0 6Z" stroke="#202020" stroke-width="0.333263" stroke-miterlimit="8" fill="#0070C0" fill-rule="evenodd" transform="matrix(-1 0 0 1.00021 699.5 585.623)"/><rect x="590.5" y="509.607" width="280" height="42.0088" stroke="#000000" stroke-width="0.99979" stroke-linejoin="round" stroke-miterlimit="10" stroke-dasharray="7.99832 2.99937" fill="none"/><text font-family="Times New Roman,Times New Roman_MSFontService,sans-serif" font-weight="700" font-size="27" transform="matrix(1 0 0 1.00021 620.02 540)">Original Subgarph</text><path d="M731.167 621.631 731.167 721.231 729.834 721.231 729.833 621.631ZM730.5 721.231 734.499 718.564 730.5 726.564 726.501 718.564Z"/><text font-family="Times New Roman,Times New Roman_MSFontService,sans-serif" font-weight="700" font-size="27" transform="matrix(1 0 0 1.00021 740.241 683)">Adversarial Training</text><path d="M0 0 16.0633 4.99895" stroke="#202020" stroke-width="0.333263" stroke-miterlimit="8" fill="#BBE0E3" fill-rule="evenodd" transform="matrix(-1 0 0 1.00021 763.563 753.658)"/><path d="M725.029 764.86 706.5 763.66" stroke="#202020" stroke-width="0.333263" stroke-miterlimit="8" fill="#BBE0E3" fill-rule="evenodd"/><path d="M729.432 783.995 724.5 767.661" stroke="#202020" stroke-width="0.333263" stroke-miterlimit="8" fill="#BBE0E3" fill-rule="evenodd"/><path d="M0 0 11.331 8.13163" stroke="#202020" stroke-width="0.333263" stroke-miterlimit="8" fill="#BBE0E3" fill-rule="evenodd" transform="matrix(-1 0 0 1.00021 750.831 779.664)"/><path d="M747.5 763.66 752.632 778.727" stroke="#202020" stroke-width="0.333263" stroke-miterlimit="8" fill="#BBE0E3" fill-rule="evenodd"/><path d="M0 5.5C-7.6388e-16 2.46243 2.68629 -7.00223e-16 6-1.40045e-15 9.31371-2.80089e-15 12 2.46243 12 5.5 12 8.53757 9.31371 11 6 11 2.68629 11-3.8194e-15 8.53757 0 5.5Z" stroke="#202020" stroke-width="0.333263" stroke-miterlimit="8" fill="#FFC000" fill-rule="evenodd" transform="matrix(-1 0 0 1.00021 752.5 754.658)"/><path d="M0 0 16.0633 4.99895" stroke="#202020" stroke-width="0.333263" stroke-miterlimit="8" fill="#BBE0E3" fill-rule="evenodd" transform="matrix(-1 0 0 1.00021 740.563 760.66)"/><path d="M0 0 3.86585 17.663" stroke="#202020" stroke-width="0.333263" stroke-miterlimit="8" fill="#BBE0E3" fill-rule="evenodd" transform="matrix(-1 0 0 1.00021 728.366 746.657)"/><path d="M742.364 756.523 729.5 746.657" stroke="#202020" stroke-width="0.333263" stroke-miterlimit="8" fill="#BBE0E3" fill-rule="evenodd"/><path d="M0 6C-7.6388e-16 2.68629 2.68629 -7.6388e-16 6-1.52776e-15 9.31371-3.05552e-15 12 2.68629 12 6 12 9.31371 9.31371 12 6 12 2.68629 12-3.8194e-15 9.31371 0 6Z" stroke="#202020" stroke-width="0.333263" stroke-miterlimit="8" fill="#FFC000" fill-rule="evenodd" transform="matrix(-1 0 0 1.00021 736.5 739.655)"/><path d="M0 5.5C-7.00223e-16 2.46243 2.46243 -7.00223e-16 5.5-1.40045e-15 8.53757-2.80089e-15 11 2.46243 11 5.5 11 8.53757 8.53757 11 5.5 11 2.46243 11-3.50112e-15 8.53757 0 5.5Z" stroke="#202020" stroke-width="0.333263" stroke-miterlimit="8" fill="#FFC000" fill-rule="evenodd" transform="matrix(-1 0 0 1.00021 729.5 759.66)"/><path d="M0 5.5C-7.6388e-16 2.46243 2.68629 -7.00223e-16 6-1.40045e-15 9.31371-2.80089e-15 12 2.46243 12 5.5 12 8.53757 9.31371 11 6 11 2.68629 11-3.8194e-15 8.53757 0 5.5Z" stroke="#202020" stroke-width="0.333263" stroke-miterlimit="8" fill="#0070C0" fill-rule="evenodd" transform="matrix(-1 0 0 1.00021 706.5 758.659)"/><path d="M0 5.5C-7.00223e-16 2.46243 2.46243 -7.00223e-16 5.5-1.40045e-15 8.53757-2.80089e-15 11 2.46243 11 5.5 11 8.53757 8.53757 11 5.5 11 2.46243 11-3.50112e-15 8.53757 0 5.5Z" stroke="#202020" stroke-width="0.333263" stroke-miterlimit="8" fill="#FFC000" fill-rule="evenodd" transform="matrix(-1 0 0 1.00021 770.5 746.657)"/><path d="M0 0 11.331 8.13163" stroke="#202020" stroke-width="0.333263" stroke-miterlimit="8" fill="#BBE0E3" fill-rule="evenodd" transform="matrix(-1 0 0 1.00021 735.831 789.666)"/><path d="M0 6C-7.00223e-16 2.68629 2.46243 -7.6388e-16 5.5-1.52776e-15 8.53757-3.05552e-15 11 2.68629 11 6 11 9.31371 8.53757 12 5.5 12 2.46243 12-3.50112e-15 9.31371 0 6Z" stroke="#202020" stroke-width="0.333263" stroke-miterlimit="8" fill="#FFC000" fill-rule="evenodd" transform="matrix(-1 0 0 1.00021 728.5 794.667)"/><path d="M0 6C-7.00223e-16 2.68629 2.46243 -7.6388e-16 5.5-1.52776e-15 8.53757-3.05552e-15 11 2.68629 11 6 11 9.31371 8.53757 12 5.5 12 2.46243 12-3.50112e-15 9.31371 0 6Z" stroke="#202020" stroke-width="0.333263" stroke-miterlimit="8" fill="#FFC000" fill-rule="evenodd" transform="matrix(-1 0 0 1.00021 739.5 781.664)"/><path d="M757.432 795.997 752.5 779.664" stroke="#202020" stroke-width="0.333263" stroke-miterlimit="8" fill="#BBE0E3" fill-rule="evenodd"/><path d="M0 5.5C-7.6388e-16 2.46243 2.68629 -7.00223e-16 6-1.40045e-15 9.31371-2.80089e-15 12 2.46243 12 5.5 12 8.53757 9.31371 11 6 11 2.68629 11-3.8194e-15 8.53757 0 5.5Z" stroke="#202020" stroke-width="0.333263" stroke-miterlimit="8" fill="#FFC000" fill-rule="evenodd" transform="matrix(-1 0 0 1.00021 762.5 790.666)"/><path d="M0 5.5C-7.00223e-16 2.46243 2.46243 -7.00223e-16 5.5-1.40045e-15 8.53757-2.80089e-15 11 2.46243 11 5.5 11 8.53757 8.53757 11 5.5 11 2.46243 11-3.50112e-15 8.53757 0 5.5Z" stroke="#202020" stroke-width="0.333263" stroke-miterlimit="8" fill="#FFC000" fill-rule="evenodd" transform="matrix(-1 0 0 1.00021 758.5 772.662)"/><rect x="590.5" y="816.672" width="280" height="42.0088" stroke="#000000" stroke-width="0.99979" stroke-linejoin="round" stroke-miterlimit="10" stroke-dasharray="7.99832 2.99937" fill="none"/><text font-family="Times New Roman,Times New Roman_MSFontService,sans-serif" font-weight="700" font-size="27" transform="matrix(1 0 0 1.00021 600.324 847)">Adversarial<tspan font-size="27" x="144.303" y="0">Subgarph</tspan></text><path d="M785.5 591.958 809.695 591.958 809.695 593.291 785.5 593.291ZM809.695 592.625 807.029 588.625 815.027 592.625 807.029 596.625Z"/><rect x="824.5" y="567.619" width="92" height="47.0099" stroke="#000000" stroke-width="1.33305" stroke-miterlimit="8" fill="#BADEE0"/><text font-family="Times New Roman,Times New Roman_MSFontService,sans-serif" font-weight="700" font-size="27" transform="matrix(1 0 0 1.00021 839.607 601)">GNN </text><rect x="824.5" y="737.655" width="92" height="48.0101" stroke="#000000" stroke-width="1.33305" stroke-miterlimit="8" fill="#FFECAF"/><text font-family="Times New Roman,Times New Roman_MSFontService,sans-serif" font-weight="700" font-size="27" transform="matrix(1 0 0 1.00021 839.607 771)">GNN </text><rect x="945.5" y="565.619" width="119" height="47.0099" stroke="#000000" stroke-width="1.33305" stroke-miterlimit="8" fill="#BADEE0"/><text font-family="Times New Roman,Times New Roman_MSFontService,sans-serif" font-weight="700" font-size="27" transform="matrix(1 0 0 1.00021 955.566 599)">Readout </text><rect x="945.5" y="737.655" width="119" height="48.0101" stroke="#000000" stroke-width="1.33305" stroke-miterlimit="8" fill="#FFECAF"/><text font-family="Times New Roman,Times New Roman_MSFontService,sans-serif" font-weight="700" font-size="27" transform="matrix(1 0 0 1.00021 955.566 771)">Readout </text><path d="M786.5 759.993 810.695 759.993 810.695 761.326 786.5 761.326ZM810.695 760.66 808.029 756.66 816.027 760.66 808.029 764.66Z"/><path d="M916.5 589.957 940.695 589.957 940.695 591.291 916.5 591.291ZM940.695 590.624 938.029 586.624 946.027 590.624 938.029 594.624Z"/><path d="M914.5 760.993 938.695 760.993 938.695 762.327 914.5 762.327ZM938.695 761.66 936.029 757.66 944.027 761.66 936.029 765.66Z"/><path d="M1066.5 588.957 1090.69 588.957 1090.69 590.291 1066.5 590.291ZM1090.69 589.624 1088.03 585.624 1096.03 589.624 1088.03 593.624Z"/><path d="M1064.5 759.993 1088.69 759.993 1088.69 761.326 1064.5 761.326ZM1088.69 760.66 1086.03 756.66 1094.03 760.66 1086.03 764.66Z"/><rect x="1096.5" y="565.619" width="93" height="47.0099" stroke="#000000" stroke-width="1.33305" stroke-miterlimit="8" fill="#BADEE0"/><text font-family="Times New Roman,Times New Roman_MSFontService,sans-serif" font-weight="700" font-size="27" transform="matrix(1 0 0 1.00021 1113.1 599)">MLP </text><rect x="1095.5" y="737.655" width="94" height="48.0101" stroke="#000000" stroke-width="1.33305" stroke-miterlimit="8" fill="#FFECAF"/><text font-family="Times New Roman,Times New Roman_MSFontService,sans-serif" font-weight="700" font-size="27" transform="matrix(1 0 0 1.00021 1112.47 771)">MLP </text><path d="M984.5 673.975 1143.2 673.975 1143.2 675.308 984.5 675.308ZM1143.2 674.642 1140.53 670.642 1148.53 674.642 1140.53 678.642Z"/><text font-family="Times New Roman,Times New Roman_MSFontService,sans-serif" font-weight="700" font-size="46" transform="matrix(1 0 0 1.00021 1410.64 335)">...</text><path d="M1339.17 394.583 1339.17 646.45 1337.83 646.45 1337.83 394.583ZM1338.5 646.45 1342.5 643.783 1338.5 651.783 1334.5 643.783Z"/><text font-family="Cambria Math,Cambria Math_MSFontService,sans-serif" font-weight="400" font-size="27" transform="matrix(1 0 0 1.00021 1055.26 664)"></text><rect x="1165.5" y="649.636" width="220" height="45.0095" stroke="#FF0000" stroke-width="1.33305" stroke-miterlimit="8" stroke-dasharray="5.33221 3.99916" fill="none"/><path d="M1199.5 587.957 1223.69 587.957 1223.69 589.29 1199.5 589.29ZM1223.69 588.624 1221.03 584.624 1229.03 588.624 1221.03 592.624Z"/><path d="M1199.5 757.993 1223.69 757.993 1223.69 759.326 1199.5 759.326ZM1223.69 758.659 1221.03 754.659 1229.03 758.659 1221.03 762.659Z"/><text font-family="Times New Roman,Times New Roman_MSFontService,sans-serif" font-style="italic" font-weight="700" font-size="24" transform="matrix(1 0 0 1.00021 1240.47 595)">L<tspan font-size="16" x="14.6637" y="4.99895">Orsub</tspan><tspan font-size="24" x="-2.99927" y="169.964">L</tspan><tspan font-size="16" x="11.6643" y="174.963">Adsub</tspan><tspan font-size="24" x="-66.5859" y="83.9824">L</tspan><tspan font-size="16" x="-51.9224" y="88.9813">Dis</tspan><tspan font-size="24" x="8.13171" y="80.983">L</tspan><tspan font-size="16" x="22.7953" y="85.9819">Sub</tspan></text><path d="M1271.17 601.622 1271.46 642.955 1270.13 642.965 1269.83 601.631ZM1270.8 642.96 1274.78 640.265 1270.83 648.293 1266.78 640.322Z"/><path d="M0.666527-1.32198e-06 0.666621 47.59-0.666432 47.59-0.666527 1.32198e-06ZM9.4389e-05 47.59 3.99925 44.9239 0.000104965 52.9222-3.99907 44.9239Z" transform="matrix(1 0 0 -1.00021 1271.5 752.58)"/><text font-family="Microsoft YaHei,Microsoft YaHei_MSFontService,sans-serif" font-weight="700" font-size="27" transform="matrix(1 0 0 1.00021 1217.08 680)"><tspan font-size="27" x="76.1173" y="-0.99979"></tspan><tspan font-family="Times New Roman,Times New Roman_MSFontService,sans-serif" font-style="italic" font-size="24" x="108.977" y="-2.99937">L</tspan><tspan font-family="Times New Roman,Times New Roman_MSFontService,sans-serif" font-style="italic" font-size="16" x="123.641" y="1.99958">Node</tspan><tspan font-family="Times New Roman,Times New Roman_MSFontService,sans-serif" font-style="italic" font-size="24" x="62.7201" y="-45.9903"></tspan><tspan font-family="Times New Roman,Times New Roman_MSFontService,sans-serif" font-style="italic" font-size="24" x="66.386" y="53.9887"></tspan><tspan font-family="Arial,Arial_MSFontService,sans-serif" font-weight="400" font-size="24" x="177.029" y="-1.99958">= </tspan><tspan fill="#FF0000" font-family="Times New Roman,Times New Roman_MSFontService,sans-serif" font-style="italic" font-size="32" x="197.692" y="-1.99958">L</tspan><tspan fill="#FF0000" font-family="Times New Roman,Times New Roman_MSFontService,sans-serif" font-style="italic" font-size="21" x="217.188" y="4.99895">Causal</tspan></text><path d="M1090.5 254.887 1180.81 254.887 1180.81 256.22 1090.5 256.22ZM1180.81 255.554 1178.15 251.554 1186.15 255.554 1178.15 259.554Z"/></g></svg>